<?xml version="1.0" encoding="UTF-8" standalone="no"?>
<svg
   width="1em"
   height="1em"
   viewBox="0 0 24 24"
   version="1.1"
   id="svg52"
   sodipodi:docname="app.svg"
   inkscape:version="1.2.2 (b0a8486541, 2022-12-01)"
   xmlns:inkscape="http://www.inkscape.org/namespaces/inkscape"
   xmlns:sodipodi="http://sodipodi.sourceforge.net/DTD/sodipodi-0.dtd"
   xmlns="http://www.w3.org/2000/svg"
   xmlns:svg="http://www.w3.org/2000/svg">
  <defs
     id="defs56" />
  <sodipodi:namedview
     id="namedview54"
     pagecolor="#ffffff"
     bordercolor="#000000"
     borderopacity="0.25"
     inkscape:showpageshadow="2"
     inkscape:pageopacity="0.0"
     inkscape:pagecheckerboard="0"
     inkscape:deskcolor="#d1d1d1"
     showgrid="false"
     inkscape:zoom="37.416667"
     inkscape:cx="11.665924"
     inkscape:cy="12.013363"
     inkscape:window-width="3440"
     inkscape:window-height="1440"
     inkscape:window-x="0"
     inkscape:window-y="0"
     inkscape:window-maximized="1"
     inkscape:current-layer="svg52" />
  <path
     fill="currentColor"
     d="M9.75 20.85c1.78-.7 1.39-2.63.49-3.85c-.89-1.25-2.12-2.11-3.36-2.94A9.8 9.8 0 0 1 4.54 12c-.28-.33-.85-.94-.27-1.06c.59-.12 1.61.46 2.13.68c.91.38 1.81.82 2.65 1.34l1.01-1.7C8.5 10.23 6.5 9.32 4.64 9.05c-1.06-.16-2.18.06-2.54 1.21c-.32.99.19 1.99.77 2.77c1.37 1.83 3.5 2.71 5.09 4.29c.34.33.75.72.95 1.18c.21.44.16.47-.31.47c-1.24 0-2.79-.97-3.8-1.61l-1.01 1.7c1.53.94 4.09 2.41 5.96 1.79m9.21-13.52L13.29 13H11v-2.29l5.67-5.68zm3.4-.78c-.01.3-.32.61-.64.92L19.2 10l-.87-.87l2.6-2.59l-.59-.59l-.67.67l-2.29-2.29l2.15-2.15c.24-.24.63-.24.86 0l1.43 1.43c.24.22.24.62 0 .86c-.21.21-.41.41-.41.61c-.02.2.18.42.38.59c.29.3.58.58.57.88"
     id="path50"
     style="fill:#ebebeb;fill-opacity:1" />
</svg>
